<svg xmlns="http://www.w3.org/2000/svg" viewBox="0 0 242.9 63.6"><path fill-rule="evenodd" clip-rule="evenodd" fill="red" d="M16.9.6L225.6 0h2.4l1.6.1 1.1.1 1.7.1 1.7.1 1.7.1 1.6.1 1.4.1.8.1.7.1c-.5.2-1.1.3-1.7.3l-.9.1c-.8.1-1.5.2-2 .6-.4.3-.4.8-.4 1.2v.1c.3 4.2 0 8.5-1 12.6 1.6.4 3.2.7 4.8.9.7.1.7 1 .1 1.2h-.1l-4 .7c-.3.9.7 1.4 2.1 1.6l.4.1h2.3l-3.7 1.5c2 1.6 3 3.8 2.8 5.9 0 .3-.1.7-.2 1l-.1.7c-.2.8-.3 1.6-.2 2.3.2 1.3 1.6 2.7 3.7 2.8-.6.3-1.1.7-1.4.9l-.2.2-.3.3c-.2.2-.4.3-.6.5-.4.3-.3.9.2 1l1.2.2.7.1c.1 0 .2 0 .3.1.8.1.9 1.2.2 1.5h-.1l-6.6.6c-.8.1-1.1 1-.5 1.5l.5.4c.4.4.9.7 1.3.9-1.1.3-1.7 1.1-1.4 1.8.1.3.4.5.6.8l.3.3.2.1c1.8 1.7 1.6 4 .9 6l-.2.5-.2.6-.5 1.3-.2.6c-.7 1.7-1.1 3.4-.5 5.1l-1.1.5c.2.5 1.6 1 2.8 1.3l.4.1c.3 0 .5.1.8.1-.1 0-.1 0-.2.1l-.3.1-.4.1-.5.1-.9.1-.6.1-1 .1-1.5.1-1.6.1-1.6.1-1.5.1h-2.9L17 63.6H15.3l-1.5-.1h-1.1l-1.7-.1-1.7-.1-1.7-.1-1.6-.1-1-.1-1-.1-.8-.1c-.3 0-.5 0-.7-.1.5-.2 1.1-.3 1.7-.3l.9-.1c.8-.1 1.5-.2 2-.6.4-.3.4-.8.4-1.2v-.1c-.3-4.2 0-8.5 1-12.6-1.6-.4-3.2-.7-4.8-.9-.7-.1-.7-1-.1-1.2h.1l4-.7c.3-.9-.7-1.4-2.1-1.6l-.6-.1H2.7l3.7-1.5c-2-1.6-3-3.8-2.8-5.9 0-.3.1-.7.2-1l.2-1c.1-.7.2-1.3.1-2-.2-1.3-1.6-2.7-3.7-2.8.7-.4 1.2-.7 1.5-1l.4-.4c.2-.2.4-.3.6-.5.4-.3.3-.9-.2-1l-1.5-.3-.7-.1c-.8-.1-.9-1.2-.2-1.5h.1l6.6-.6c.8-.1 1.1-1 .5-1.5l-.5-.4c-.4-.4-.9-.7-1.3-.9 1.1-.3 1.7-1.1 1.4-1.8-.1-.3-.4-.5-.6-.8l-.3-.3-.2-.1c-1.9-1.8-1.6-4.1-.9-6.3l.5-.6.2-.5.5-1.1.2-.6c.6-1.6 1.1-3.2.6-4.8L7 3.7l1.1-.5c-.2-.5-1.6-1-2.8-1.3l-.4-.1c-.3 0-.5-.1-.8-.1.1 0 .2-.1.4-.1l.4-.1.5-.1.5-.1.9-.1 1.4-.1L9.7 1l1.6-.1 1.6-.1L14 .7l1.4-.1h1.5zm219.9 12.3h3.2c.6 0 1.2.1 1.5.2.7.2.6.5 0 .8l-.2.1c-.1 0-.1 0-.2.1l-.1-.1h-1.6l-.5-.1h-.4l-.3-.1c-.8-.1-1.6-.4-1.4-.9z"/></svg>