<svg xmlns="http://www.w3.org/2000/svg" width="213" height="55"><g fill="none" fill-rule="evenodd"><path fill="red" d="M14.823 0h182.19l.616.006.722.017.814.027 1.353.058.967.047 1.506.083 1.524.094 1.485.1 1.39.104 1.241.103.717.067.608.064c-.423.185-.944.247-1.478.284l-.8.047c-.701.046-1.351.133-1.751.491-.336.3-.355.693-.335 1.07l.008.124a38.24 38.24 0 01-.867 11.024c1.376.335 2.79.6 4.23.795.578.078.628.858.122 1.038l-.101.026-3.512.611c-.234.803.578 1.186 1.835 1.386l.371.052.392.044.41.036.425.03.658.035-3.22 1.258c1.748 1.442 2.645 3.31 2.47 5.143a7.765 7.765 0 01-.144.874l-.13.582c-.153.677-.288 1.354-.18 2.032.185 1.163 1.413 2.396 3.207 2.444a5.838 5.838 0 00-1.197.81l-.22.203-.286.278a2.713 2.713 0 01-.504.392c-.373.219-.274.783.15.87l1.026.21.62.121.303.054c.696.122.758 1.067.143 1.31l-.108.034-5.778.524a.759.759 0 00-.431 1.327l.393.341c.39.333.767.631 1.094.79-.93.232-1.491.959-1.22 1.583.106.243.314.457.539.664l.273.249.134.125c1.556 1.51 1.403 3.456.797 5.269l-.147.416-.209.53-.46 1.105-.2.494c-.584 1.486-1 2.992-.441 4.459l-.931.474c.195.48 1.394.887 2.433 1.104l.38.072c.245.042.47.07.66.085a2.115 2.115 0 01-.212.057l-.292.059-.365.059-.431.06-.754.089-.562.059-.914.086-1.313.109-1.365.099-1.355.086-1.286.069-.883.039-.785.027-.456.01-.393.003-182.295-.002-.671-.011-.77-.022-1.304-.051-.945-.044-1.488-.079-1.524-.09-1.504-.098-1.428-.103-.883-.07-.808-.068-.716-.067a40.252 40.252 0 01-.608-.064c.423-.186.943-.248 1.477-.284l.8-.047c.701-.046 1.351-.133 1.752-.491.335-.3.354-.694.334-1.07l-.007-.125a38.268 38.268 0 01.866-11.023 41.085 41.085 0 00-4.23-.795c-.577-.078-.627-.858-.122-1.038l.102-.027 3.51-.61c.235-.803-.578-1.186-1.835-1.386l-.37-.052-.393-.044-.41-.036-.424-.03-.658-.035 3.22-1.259c-1.747-1.441-2.645-3.309-2.47-5.142.027-.292.081-.583.144-.874l.194-.872c.122-.58.208-1.161.116-1.743-.185-1.163-1.413-2.394-3.207-2.444a5.758 5.758 0 001.31-.912l.393-.378c.154-.145.308-.276.505-.392.373-.218.273-.784-.15-.871l-1.342-.272-.607-.113c-.698-.121-.758-1.066-.144-1.308l.109-.034 5.778-.525a.758.758 0 00.43-1.327l-.392-.342c-.39-.333-.768-.631-1.095-.79.93-.231 1.49-.959 1.22-1.582-.106-.243-.313-.457-.539-.665l-.273-.249-.133-.125C3.91 13.351 4.139 11.314 4.8 9.443l.154-.413.18-.448.41-.982.2-.495c.552-1.403.953-2.823.526-4.212l-.084-.245.932-.476c-.196-.479-1.394-.886-2.434-1.103l-.38-.072a7.492 7.492 0 00-.66-.085c.084-.028.201-.057.348-.086l.33-.059.399-.06.46-.06.792-.088L7.175.443 8.488.334l1.365-.1L11.208.15l.975-.054L13.378.04l1.02-.032.425-.007zm191.96 11.274l.366-.027.562-.03.718-.025.591-.004c.067 0 .133 0 .2.002l.397.012c.522.023 1.01.076 1.35.179.652.198.491.472.029.667l-.175.065c-.062.02-.128.04-.196.057l-.21.048a3.738 3.738 0 01-.22.036l-.225.024a3.467 3.467 0 01-.337.01l-.241-.014-.282-.023-.45-.046-.306-.04-.302-.05c-.79-.145-1.446-.398-1.268-.841z"/><path fill="#FFF" fill-rule="nonzero" d="M92.92 42.2c2.827 0 5.28-.593 7.36-1.78s3.68-2.887 4.8-5.1c1.12-2.213 1.68-4.8 1.68-7.76s-.56-5.533-1.68-7.72c-1.12-2.187-2.72-3.873-4.8-5.06C98.2 13.593 95.747 13 92.92 13s-5.287.593-7.38 1.78-3.707 2.873-4.84 5.06c-1.133 2.187-1.7 4.76-1.7 7.72s.567 5.547 1.7 7.76 2.747 3.913 4.84 5.1c2.093 1.187 4.553 1.78 7.38 1.78zm0-4.88c-2.4 0-4.273-.833-5.62-2.5-1.347-1.667-2.02-4.087-2.02-7.26 0-3.147.673-5.547 2.02-7.2 1.347-1.653 3.22-2.48 5.62-2.48s4.273.827 5.62 2.48c1.347 1.653 2.02 4.053 2.02 7.2 0 3.147-.673 5.56-2.02 7.24-1.347 1.68-3.22 2.52-5.62 2.52zm24.96 4.52V30.32h6.68c3.12 0 5.56-.767 7.32-2.3 1.76-1.533 2.64-3.593 2.64-6.18 0-2.613-.873-4.68-2.62-6.2-1.747-1.52-4.193-2.28-7.34-2.28h-12.92v28.48h6.24zm5.88-16.28h-5.88v-7.4h5.88c3.253 0 4.88 1.24 4.88 3.72 0 2.453-1.627 3.68-4.88 3.68z"/></g></svg>